<svg width="501" height="501" viewBox="0 0 501 501" fill="none" xmlns="http://www.w3.org/2000/svg">
<path d="M323.885 226.544C324.532 223.764 324.796 220.948 324.672 218.157C324.656 217.876 324.646 217.596 324.625 217.316C324.62 217.218 324.615 217.127 324.604 217.035L324.532 216.176L323.885 215.761C323.409 215.456 322.927 215.176 322.436 214.914C320.454 213.866 318.347 213.171 316.137 212.829C309.129 211.763 301.474 214.426 293.406 220.741L293.307 220.82C293.162 220.93 293.023 221.052 292.904 221.143C284.933 227.482 279.907 234.73 277.941 242.69C277.915 242.8 277.889 242.903 277.863 243.007C277.858 243.013 277.858 243.019 277.858 243.031C277.713 243.635 277.594 244.244 277.49 244.872C277.211 246.481 277.061 248.115 277.045 249.761C277.04 249.974 277.04 250.193 277.04 250.413C277.045 251.028 277.066 251.65 277.113 252.272L277.159 252.887C277.164 252.985 277.17 253.076 277.18 253.168L277.185 253.174L277.858 253.582C280.29 255.076 282.946 256.02 285.746 256.392C292.883 257.349 300.662 254.582 308.87 248.164L308.969 248.09C316.991 241.806 322.006 234.571 323.885 226.544ZM307.442 245.372L307.344 245.445C299.689 251.431 292.531 254.021 286.061 253.156C283.862 252.857 281.771 252.168 279.83 251.095C279.742 248.572 280.001 246.049 280.606 243.598C282.381 236.394 287.045 229.744 294.492 223.819C294.606 223.716 294.725 223.63 294.844 223.533L294.948 223.453C302.447 217.584 309.46 215.097 315.795 216.054C317.954 216.389 320.008 217.108 321.913 218.218C322.032 220.692 321.804 223.197 321.219 225.678C319.522 232.919 314.884 239.545 307.442 245.372ZM260.452 173.85L260.556 173.759C261.979 172.515 263.402 171.345 264.82 170.236C263.402 171.339 261.979 172.509 260.556 173.753L260.452 173.85C258.18 175.831 256.053 177.873 254.071 179.994C256.053 177.879 258.18 175.831 260.452 173.85ZM254.071 179.994C253.408 180.695 252.766 181.408 252.135 182.128C252.761 181.408 253.408 180.701 254.071 179.994ZM235.071 226.952C234.983 224.813 235.024 222.673 235.179 220.54C235.019 222.673 234.983 224.813 235.071 226.952C235.091 227.549 235.122 228.141 235.169 228.726C235.128 228.135 235.097 227.543 235.071 226.952ZM324.884 172.765C325.422 173.314 325.96 173.881 326.493 174.46C325.966 173.875 325.422 173.308 324.884 172.765ZM334.36 184.907C332.834 182.481 331.255 180.226 329.62 178.153C331.25 180.232 332.834 182.487 334.36 184.907C334.831 185.663 335.287 186.419 335.737 187.174C335.297 186.419 334.837 185.663 334.36 184.907ZM256.244 263.633C256.084 263.524 255.923 263.408 255.768 263.292C255.929 263.408 256.089 263.524 256.25 263.639C256.415 263.749 256.581 263.859 256.746 263.963C256.576 263.859 256.41 263.749 256.244 263.633ZM255.142 266.559C255.168 266.577 255.194 266.596 255.214 266.614L255.22 266.608C255.194 266.59 255.168 266.571 255.142 266.559ZM322.441 214.914C322.436 214.835 322.425 214.756 322.415 214.676L322.306 213.841L321.659 213.476C319.268 212.122 316.68 211.318 313.979 211.074C307.09 210.452 299.741 213.5 292.132 220.138L292.039 220.217C291.899 220.339 291.765 220.461 291.661 220.558C284.157 227.214 279.555 234.589 277.972 242.471C277.935 242.647 277.904 242.824 277.873 243.007C277.868 243.013 277.868 243.019 277.868 243.031C277.775 243.556 277.692 244.086 277.63 244.628C277.656 244.488 277.687 244.348 277.713 244.214C279.411 236.394 284.167 229.073 291.982 222.253L292.081 222.167C292.21 222.052 292.339 221.942 292.469 221.832C300.01 215.359 307.09 212.348 313.72 212.793C316.323 212.964 318.777 213.671 321.08 214.908C321.566 215.17 322.053 215.45 322.524 215.761C322.508 215.481 322.477 215.2 322.441 214.914ZM357.392 268.357C361.445 259.495 363.282 250.248 362.863 240.813C362.842 240.325 362.811 239.831 362.78 239.344C362.744 238.856 362.702 238.369 362.656 237.875C362.594 237.223 362.521 236.577 362.444 235.924C362.138 233.565 361.698 231.201 361.119 228.842C360.979 228.281 360.834 227.72 360.674 227.159C360.384 226.099 360.058 225.038 359.706 223.978C359.312 222.771 358.872 221.564 358.401 220.363C358.277 220.04 358.148 219.717 358.013 219.394C357.801 218.87 357.578 218.346 357.351 217.821C356.947 216.907 356.528 215.993 356.088 215.079C354.763 212.336 353.246 209.605 351.538 206.899C349.536 203.717 347.439 200.81 345.271 198.213C344.546 197.347 343.816 196.518 343.076 195.726C342.652 194.672 342.196 193.617 341.71 192.557C340.245 189.381 338.506 186.193 336.519 183.03C334.925 180.494 333.263 178.135 331.55 175.953C331.121 175.411 330.686 174.874 330.251 174.356C330.034 174.1 329.816 173.838 329.594 173.582C328.988 172.881 328.377 172.198 327.762 171.546C327.373 171.138 326.985 170.729 326.597 170.339C326.007 169.748 325.417 169.175 324.822 168.62C324.423 168.255 324.02 167.895 323.621 167.542C323.419 167.371 323.217 167.194 323.015 167.024C322.689 166.749 322.363 166.475 322.037 166.213C322.037 166.213 322.032 166.219 322.032 166.213C321.561 165.835 321.08 165.463 320.598 165.103C320.598 165.103 320.593 165.11 320.593 165.103C320.112 164.744 319.631 164.403 319.144 164.061C317.679 163.055 316.178 162.153 314.657 161.361C312.11 160.032 309.497 159.02 306.831 158.307C306.029 158.094 305.227 157.911 304.425 157.759C304.419 157.765 304.419 157.759 304.419 157.759C304.15 157.71 303.881 157.655 303.607 157.619C300.796 157.143 297.924 157.003 295.01 157.204C294.565 157.235 294.109 157.271 293.659 157.314C293.374 157.344 293.095 157.381 292.805 157.411C292.339 157.472 291.874 157.539 291.408 157.612C290.455 157.765 289.493 157.948 288.535 158.173C287.112 158.502 285.678 158.911 284.245 159.392C283.753 159.557 283.266 159.727 282.775 159.91C282.402 160.051 282.024 160.197 281.646 160.343C281.201 160.52 280.756 160.703 280.316 160.898C279.773 161.129 279.224 161.373 278.681 161.629C278.225 161.836 277.765 162.062 277.309 162.287C276.44 162.72 275.56 163.184 274.685 163.671C273.805 164.159 272.931 164.677 272.051 165.219C271.461 165.585 270.881 165.957 270.291 166.341C269.887 166.609 269.484 166.883 269.08 167.158C268.371 167.645 267.667 168.139 266.958 168.663C266.249 169.181 265.54 169.724 264.826 170.272C263.407 171.376 261.989 172.552 260.561 173.795L260.457 173.887C258.185 175.868 256.058 177.916 254.076 180.031C253.418 180.738 252.771 181.445 252.14 182.164C251.783 182.573 251.426 182.981 251.079 183.401C250.649 183.913 250.23 184.425 249.816 184.944C246.307 189.344 243.388 193.989 241.08 198.847C240.671 199.706 240.283 200.572 239.915 201.437C239.672 202.01 239.434 202.589 239.206 203.162C237.395 207.801 236.163 212.494 235.531 217.218C235.428 218.029 235.335 218.833 235.257 219.656C235.226 219.961 235.205 220.266 235.185 220.57C235.029 222.698 234.988 224.837 235.076 226.983C235.102 227.574 235.133 228.165 235.174 228.756C235.335 230.938 235.625 233.096 236.044 235.223C236.163 235.845 236.303 236.461 236.447 237.082C236.51 237.345 236.572 237.601 236.639 237.857C236.711 238.155 236.789 238.454 236.867 238.746C236.903 238.887 236.939 239.027 236.981 239.161C237.058 239.441 237.136 239.722 237.224 240.002C238.647 244.799 240.759 249.431 243.543 253.857C246.411 258.416 249.516 262.091 252.777 264.798C253.118 265.078 253.465 265.352 253.807 265.62C253.812 265.62 253.817 265.633 253.822 265.633C254.169 265.901 254.526 266.163 254.878 266.401C254.961 266.468 255.054 266.529 255.142 266.584C255.168 266.602 255.194 266.62 255.22 266.632L255.225 266.638H255.22L177.497 282.193L177.492 282.187L156.256 300.693L181.399 340.659L288.929 318.18C289.337 318.113 289.752 318.034 290.16 317.954C290.569 317.875 290.978 317.784 291.387 317.692C291.796 317.601 292.194 317.503 292.608 317.394C293.902 317.052 295.046 316.766 296.102 316.51L296.143 316.498C297.101 316.223 298.053 315.943 299 315.65C299.829 315.394 300.662 315.126 301.485 314.852C302.535 314.504 303.586 314.139 304.621 313.755C306.785 312.962 308.912 312.109 311.003 311.201C313.384 310.165 315.718 309.049 318 307.867C324.905 304.277 331.048 300.15 336.27 295.591L336.374 295.499C345.882 287.192 352.957 278.061 357.392 268.357ZM320.448 270.442C315.283 274.946 309.279 278.981 302.432 282.535C297.023 285.339 291.382 287.716 285.523 289.636L285.518 289.642C283.965 290.148 282.397 290.629 280.808 291.08C279.799 291.336 278.758 291.586 277.723 291.867C277.578 291.897 277.439 291.94 277.294 291.97C276.114 292.281 274.913 292.543 273.707 292.75L203.613 307.531L194.592 309.348L179.298 285.034L233.202 274.239L265.783 267.717L260.882 265.956L260.323 265.755C259.779 265.56 259.231 265.328 258.687 265.06C258.382 264.913 258.071 264.749 257.766 264.578C257.419 264.383 257.078 264.182 256.736 263.956C256.57 263.853 256.405 263.743 256.239 263.633C256.079 263.518 255.913 263.402 255.758 263.286C255.276 262.939 254.795 262.561 254.314 262.171C251.296 259.665 248.393 256.215 245.702 251.937C241.809 245.75 239.325 239.161 238.28 232.285C238.166 231.566 238.073 230.835 238 230.109C237.995 230.103 237.995 230.103 238 230.103C237.974 229.829 237.943 229.561 237.923 229.281C237.886 228.866 237.855 228.458 237.829 228.043C237.798 227.629 237.778 227.214 237.762 226.806C237.752 226.458 237.741 226.111 237.731 225.764C237.721 225.416 237.721 225.075 237.721 224.721C237.721 224.026 237.731 223.332 237.762 222.643C237.783 222.088 237.814 221.533 237.855 220.979C237.897 220.424 237.943 219.869 238 219.315C238.026 219.04 238.062 218.76 238.093 218.48C238.161 217.925 238.233 217.376 238.321 216.822C238.321 216.816 238.321 216.816 238.321 216.816C238.445 215.987 238.59 215.152 238.756 214.323C238.864 213.774 238.978 213.226 239.108 212.677C239.299 211.848 239.511 211.025 239.739 210.196C239.739 210.19 239.739 210.19 239.739 210.19C239.967 209.367 240.215 208.538 240.484 207.722C240.748 206.899 241.038 206.076 241.349 205.253C241.551 204.704 241.768 204.162 241.991 203.619C242.436 202.528 242.917 201.437 243.429 200.359C243.947 199.267 244.501 198.182 245.086 197.11C245.381 196.579 245.676 196.043 245.986 195.513C246.136 195.245 246.297 194.982 246.457 194.72C246.773 194.196 247.099 193.672 247.43 193.154C248.15 192.032 248.905 190.917 249.697 189.82C250.225 189.088 250.768 188.363 251.327 187.65L251.333 187.644C252.3 186.413 253.31 185.193 254.371 183.999C256.705 181.366 259.267 178.83 262.057 176.398L262.16 176.307C262.864 175.691 263.573 175.088 264.282 174.509C264.986 173.929 265.69 173.363 266.394 172.814C266.425 172.79 266.456 172.765 266.492 172.741C267.02 172.326 267.553 171.924 268.081 171.54C275.198 166.286 282.231 162.836 289.058 161.263C294.177 160.075 299.166 159.947 303.979 160.867C304.114 160.892 304.238 160.916 304.368 160.94C304.74 161.02 305.118 161.105 305.496 161.19C305.998 161.306 306.495 161.44 306.992 161.587C307.483 161.733 307.98 161.885 308.477 162.05C308.969 162.22 309.466 162.397 309.952 162.586C310.687 162.873 311.417 163.183 312.136 163.525C312.618 163.75 313.099 163.988 313.575 164.238C314.776 164.866 315.961 165.561 317.126 166.329C317.591 166.633 318.052 166.956 318.518 167.286C319.439 167.95 320.345 168.651 321.245 169.407C321.918 169.968 322.586 170.553 323.248 171.174C323.797 171.686 324.346 172.211 324.884 172.759C325.422 173.308 325.966 173.869 326.493 174.454C327.555 175.618 328.6 176.849 329.62 178.147C331.255 180.226 332.839 182.481 334.36 184.901C334.837 185.657 335.297 186.413 335.737 187.168C335.949 187.534 336.162 187.894 336.363 188.259C336.778 188.985 337.171 189.71 337.554 190.442C337.745 190.807 337.932 191.167 338.118 191.533C338.196 191.697 338.278 191.862 338.361 192.02C338.693 192.672 339.003 193.325 339.303 193.983C336.079 190.947 332.684 188.515 329.133 186.656C321.204 182.53 312.763 181.494 303.809 183.566C295.999 185.382 288.028 189.503 279.928 195.946C279.861 195.988 279.804 196.031 279.752 196.08L279.685 196.134C278.655 196.957 277.63 197.811 276.6 198.707C276.574 198.731 276.548 198.749 276.523 198.774C276.507 198.792 276.486 198.798 276.476 198.816C268.951 205.509 264.37 212.677 262.709 220.333C261.016 228.159 262.543 235.851 267.3 243.415C270.193 248.011 273.484 251.254 277.195 253.15C277.19 253.058 277.18 252.967 277.175 252.869C277.097 252.046 277.056 251.223 277.061 250.395C277.061 250.181 277.056 249.962 277.066 249.742C277.097 248.036 277.289 246.329 277.635 244.61C277.703 244.074 277.78 243.537 277.873 243.013C277.873 243.001 277.873 242.995 277.879 242.989C277.91 242.806 277.946 242.629 277.977 242.452C279.555 234.565 284.157 227.196 291.667 220.54C291.77 220.442 291.905 220.314 292.044 220.199L292.137 220.119C299.746 213.482 307.1 210.428 313.984 211.056C316.691 211.299 319.273 212.11 321.665 213.457L322.312 213.823L322.42 214.658C322.431 214.737 322.441 214.81 322.446 214.896C322.482 215.182 322.513 215.463 322.534 215.749C323.248 216.206 323.947 216.73 324.63 217.297C326.918 219.199 329.04 221.704 330.991 224.807C335.701 232.292 337.259 239.905 335.66 247.639C334.381 253.869 331.141 259.745 325.95 265.273L325.924 265.297C325.898 265.328 325.872 265.346 325.841 265.377L321.023 269.924L321.018 269.93C321.012 269.936 321.012 269.936 321.012 269.936C320.862 270.07 320.707 270.21 320.557 270.338L320.448 270.442Z" fill="url(#paint0_linear_417_224)"/>
<path d="M306.505 418.203L227.639 493.535C214.694 504.671 195.011 502.885 183.671 489.548L8.36153 283.339C-2.48664 270.57 -1.24966 251.595 11.1357 240.923L112.641 152.627L112.361 153.309L233.725 47.2395L279.814 101.731L279.98 101.932L280.254 102.255L98.4956 253.875L223.938 402.173C246.923 429.894 283.893 437.074 306.505 418.203Z" fill="url(#paint1_linear_417_224)"/>
<path d="M498.144 249.742C498.134 249.773 498.118 249.797 498.108 249.828C496.415 253.406 493.973 256.679 490.805 259.397L389.367 347.644L389.295 347.699L389.512 347.181L399.015 324.299C402.778 315.224 405.06 305.752 405.919 296.194C405.966 295.786 405.997 295.377 406.028 294.963C407.995 269.503 399.858 243.574 382.618 223.289L292.308 116.506L280.254 102.255L279.98 101.932L279.814 101.731L233.725 47.2394L277.19 9.27203C290.135 -1.86401 306.93 -2.55887 318.269 10.7837L493.579 216.986C501.638 226.464 503.025 239.362 498.144 249.742Z" fill="url(#paint2_linear_417_224)"/>
<defs>
<linearGradient id="paint0_linear_417_224" x1="156.254" y1="248.874" x2="362.919" y2="248.874" gradientUnits="userSpaceOnUse">
<stop offset="1.33195e-07" stop-color="#FFBA7C"/>
<stop offset="0.1539" stop-color="#FDA271"/>
<stop offset="0.4766" stop-color="#F76653"/>
<stop offset="0.5324" stop-color="#F65B4E"/>
<stop offset="0.8222" stop-color="#944251"/>
<stop offset="0.9944" stop-color="#573353"/>
</linearGradient>
<linearGradient id="paint1_linear_417_224" x1="0.968936" y1="274.042" x2="306.507" y2="274.042" gradientUnits="userSpaceOnUse">
<stop offset="1.33195e-07" stop-color="#FFBA7C"/>
<stop offset="0.1539" stop-color="#FDA271"/>
<stop offset="0.4766" stop-color="#F76653"/>
<stop offset="0.5324" stop-color="#F65B4E"/>
<stop offset="0.8222" stop-color="#944251"/>
<stop offset="0.9944" stop-color="#573353"/>
</linearGradient>
<linearGradient id="paint2_linear_417_224" x1="233.725" y1="174.269" x2="500.972" y2="174.269" gradientUnits="userSpaceOnUse">
<stop offset="1.33195e-07" stop-color="#FFBA7C"/>
<stop offset="0.1539" stop-color="#FDA271"/>
<stop offset="0.4766" stop-color="#F76653"/>
<stop offset="0.5324" stop-color="#F65B4E"/>
<stop offset="0.8222" stop-color="#944251"/>
<stop offset="0.9944" stop-color="#573353"/>
</linearGradient>
</defs>
</svg>
