<svg width="50" height="51" viewBox="0 0 50 51" fill="none" xmlns="http://www.w3.org/2000/svg">
<path d="M38.2187 9.0527C35.1354 6.48145 31.3229 4.78145 27.1354 4.35645V8.64895C30.1771 9.03145 32.9479 10.2639 35.2604 12.0914L38.2187 9.0527ZM41.5729 23.3752H45.7813C45.3646 19.1039 43.6979 15.2152 41.1771 12.0702L38.1979 15.0877C39.9896 17.4464 41.1979 20.2727 41.5729 23.3752ZM38.1979 35.9127L41.1771 38.9515C43.6979 35.8065 45.3646 31.8964 45.7813 27.6464H41.5729C41.1979 30.7277 39.9896 33.5539 38.1979 35.9127ZM27.1354 42.3515V46.644C31.3229 46.219 35.1354 44.519 38.2187 41.9477L35.2396 38.9089C32.9479 40.7364 30.1771 41.969 27.1354 42.3515ZM32.5312 22.5039L27.1354 27.9864V14.8752H22.9687V27.9864L17.5729 22.4827L14.6354 25.5002L25.0521 36.1252L35.4687 25.5002L32.5312 22.5039ZM22.9687 42.3515V46.644C12.4479 45.5815 4.21875 36.5289 4.21875 25.5002C4.21875 14.4714 12.4479 5.41895 22.9687 4.35645V8.64895C14.7396 9.6902 8.38542 16.8302 8.38542 25.5002C8.38542 34.1702 14.7396 41.3102 22.9687 42.3515Z" fill="white"/>
</svg>
